<mxfile host="Electron" modified="2024-05-16T10:57:36.721Z" agent="Mozilla/5.0 (Macintosh; Intel Mac OS X 10_15_7) AppleWebKit/537.36 (KHTML, like Gecko) draw.io/24.2.5 Chrome/120.0.6099.109 Electron/28.1.0 Safari/537.36" etag="57bYIAA7N_1UioyzbF4E" version="24.2.5" type="device">
  <diagram name="Page-1" id="KmcAQne4rlM7hEc-zvhN">
    <mxGraphModel dx="928" dy="652" grid="1" gridSize="10" guides="1" tooltips="1" connect="1" arrows="1" fold="1" page="1" pageScale="1" pageWidth="850" pageHeight="1100" math="1" shadow="0">
      <root>
        <mxCell id="0" />
        <mxCell id="1" parent="0" />
        <mxCell id="TOQNIpB52cpntj8m0OE4-463" value="" style="group;strokeWidth=0.5;" parent="1" vertex="1" connectable="0">
          <mxGeometry x="395" y="326" width="23" height="3" as="geometry" />
        </mxCell>
        <mxCell id="TOQNIpB52cpntj8m0OE4-460" value="" style="ellipse;whiteSpace=wrap;html=1;aspect=fixed;fillColor=#000000;strokeWidth=0.5;" parent="TOQNIpB52cpntj8m0OE4-463" vertex="1">
          <mxGeometry width="3" height="3" as="geometry" />
        </mxCell>
        <mxCell id="TOQNIpB52cpntj8m0OE4-461" value="" style="ellipse;whiteSpace=wrap;html=1;aspect=fixed;fillColor=#000000;strokeWidth=0.5;" parent="TOQNIpB52cpntj8m0OE4-463" vertex="1">
          <mxGeometry x="10" width="3" height="3" as="geometry" />
        </mxCell>
        <mxCell id="TOQNIpB52cpntj8m0OE4-462" value="" style="ellipse;whiteSpace=wrap;html=1;aspect=fixed;fillColor=#000000;strokeWidth=0.5;" parent="TOQNIpB52cpntj8m0OE4-463" vertex="1">
          <mxGeometry x="20" width="3" height="3" as="geometry" />
        </mxCell>
        <mxCell id="TOQNIpB52cpntj8m0OE4-470" value="" style="endArrow=classic;startArrow=classic;html=1;rounded=0;exitX=0.5;exitY=1;exitDx=0;exitDy=0;strokeWidth=2;endSize=4;startSize=4;jumpSize=5;entryX=0.235;entryY=0.01;entryDx=0;entryDy=0;entryPerimeter=0;" parent="1" edge="1">
          <mxGeometry width="50" height="50" relative="1" as="geometry">
            <mxPoint x="199.7" y="440" as="sourcePoint" />
            <mxPoint x="199.80874999999997" y="475.45000000000005" as="targetPoint" />
          </mxGeometry>
        </mxCell>
        <mxCell id="TOQNIpB52cpntj8m0OE4-471" value="" style="endArrow=classic;startArrow=classic;html=1;rounded=0;strokeWidth=2;endSize=4;startSize=4;jumpSize=5;entryX=0.756;entryY=0.003;entryDx=0;entryDy=0;entryPerimeter=0;" parent="1" edge="1">
          <mxGeometry width="50" height="50" relative="1" as="geometry">
            <mxPoint x="599.5699999999999" y="440" as="sourcePoint" />
            <mxPoint x="599.3889999999999" y="475.135" as="targetPoint" />
          </mxGeometry>
        </mxCell>
        <mxCell id="TOQNIpB52cpntj8m0OE4-482" value="" style="group" parent="1" vertex="1" connectable="0">
          <mxGeometry x="39.75" y="475" width="730.25" height="45" as="geometry" />
        </mxCell>
        <mxCell id="TOQNIpB52cpntj8m0OE4-468" value="" style="rounded=1;whiteSpace=wrap;html=1;arcSize=12;imageAspect=0;fillColor=#FFB366;" parent="TOQNIpB52cpntj8m0OE4-482" vertex="1">
          <mxGeometry width="730.25" height="45" as="geometry" />
        </mxCell>
        <mxCell id="TOQNIpB52cpntj8m0OE4-469" value="&lt;font style=&quot;font-size: 18px;&quot;&gt;Global memory&lt;/font&gt;" style="text;html=1;strokeColor=none;fillColor=none;align=center;verticalAlign=middle;whiteSpace=wrap;rounded=0;movable=1;resizable=1;rotatable=1;deletable=1;editable=1;locked=0;connectable=1;" parent="TOQNIpB52cpntj8m0OE4-482" vertex="1">
          <mxGeometry x="195.25" y="7.5" width="329.5" height="30" as="geometry" />
        </mxCell>
        <mxCell id="TOQNIpB52cpntj8m0OE4-304" value="" style="rounded=0;whiteSpace=wrap;html=1;arcSize=4;imageAspect=0;fillColor=#E8E8BA;" parent="1" vertex="1">
          <mxGeometry x="40" y="200" width="340" height="240" as="geometry" />
        </mxCell>
        <mxCell id="TOQNIpB52cpntj8m0OE4-2" value="&lt;font style=&quot;font-size: 18px;&quot;&gt;Threads&lt;/font&gt;" style="text;html=1;strokeColor=none;fillColor=none;align=center;verticalAlign=middle;whiteSpace=wrap;rounded=0;" parent="1" vertex="1">
          <mxGeometry x="65" y="203" width="290" height="30" as="geometry" />
        </mxCell>
        <mxCell id="TOQNIpB52cpntj8m0OE4-301" value="" style="rounded=1;whiteSpace=wrap;html=1;fillColor=#dae8fc;strokeColor=#000000;" parent="1" vertex="1">
          <mxGeometry x="50" y="390" width="320" height="40" as="geometry" />
        </mxCell>
        <mxCell id="TOQNIpB52cpntj8m0OE4-305" value="&lt;font style=&quot;font-size: 18px;&quot;&gt;Shared memory&lt;/font&gt;" style="text;html=1;strokeColor=none;fillColor=none;align=center;verticalAlign=middle;whiteSpace=wrap;rounded=0;" parent="1" vertex="1">
          <mxGeometry x="82" y="395" width="256" height="30" as="geometry" />
        </mxCell>
        <mxCell id="TOQNIpB52cpntj8m0OE4-466" value="&lt;font style=&quot;font-size: 22px;&quot;&gt;SM 1&lt;/font&gt;" style="text;html=1;strokeColor=none;fillColor=none;align=center;verticalAlign=middle;whiteSpace=wrap;rounded=0;fontFamily=Times New Roman;" parent="1" vertex="1">
          <mxGeometry x="39" y="170" width="60" height="30" as="geometry" />
        </mxCell>
        <mxCell id="TOQNIpB52cpntj8m0OE4-3" value="" style="verticalLabelPosition=bottom;verticalAlign=top;html=1;shape=mxgraph.basic.rect;fillColor2=none;strokeWidth=0.5;size=20;indent=5;fillColor=#B3FF66;strokeColor=#000000;container=0;" parent="1" vertex="1">
          <mxGeometry x="72.5" y="240" width="15" height="15" as="geometry" />
        </mxCell>
        <mxCell id="TOQNIpB52cpntj8m0OE4-4" value="" style="verticalLabelPosition=bottom;verticalAlign=top;html=1;shape=mxgraph.basic.rect;fillColor2=none;strokeWidth=0.5;size=20;indent=5;fillColor=#B3FF66;strokeColor=#000000;container=0;" parent="1" vertex="1">
          <mxGeometry x="92.5" y="240" width="15" height="15" as="geometry" />
        </mxCell>
        <mxCell id="TOQNIpB52cpntj8m0OE4-5" value="" style="verticalLabelPosition=bottom;verticalAlign=top;html=1;shape=mxgraph.basic.rect;fillColor2=none;strokeWidth=0.5;size=20;indent=5;fillColor=#B3FF66;strokeColor=#000000;container=0;" parent="1" vertex="1">
          <mxGeometry x="112.5" y="240" width="15" height="15" as="geometry" />
        </mxCell>
        <mxCell id="TOQNIpB52cpntj8m0OE4-6" value="" style="verticalLabelPosition=bottom;verticalAlign=top;html=1;shape=mxgraph.basic.rect;fillColor2=none;strokeWidth=0.5;size=20;indent=5;fillColor=#B3FF66;strokeColor=#000000;container=0;" parent="1" vertex="1">
          <mxGeometry x="132.5" y="240" width="15" height="15" as="geometry" />
        </mxCell>
        <mxCell id="TOQNIpB52cpntj8m0OE4-7" value="" style="verticalLabelPosition=bottom;verticalAlign=top;html=1;shape=mxgraph.basic.rect;fillColor2=none;strokeWidth=0.5;size=20;indent=5;fillColor=#B3FF66;strokeColor=#000000;container=0;" parent="1" vertex="1">
          <mxGeometry x="152.5" y="240" width="15" height="15" as="geometry" />
        </mxCell>
        <mxCell id="TOQNIpB52cpntj8m0OE4-8" value="" style="verticalLabelPosition=bottom;verticalAlign=top;html=1;shape=mxgraph.basic.rect;fillColor2=none;strokeWidth=0.5;size=20;indent=5;fillColor=#B3FF66;strokeColor=#000000;container=0;" parent="1" vertex="1">
          <mxGeometry x="172.5" y="240" width="15" height="15" as="geometry" />
        </mxCell>
        <mxCell id="TOQNIpB52cpntj8m0OE4-9" value="" style="verticalLabelPosition=bottom;verticalAlign=top;html=1;shape=mxgraph.basic.rect;fillColor2=none;strokeWidth=0.5;size=20;indent=5;fillColor=#B3FF66;strokeColor=#000000;container=0;" parent="1" vertex="1">
          <mxGeometry x="192.5" y="240" width="15" height="15" as="geometry" />
        </mxCell>
        <mxCell id="TOQNIpB52cpntj8m0OE4-10" value="" style="verticalLabelPosition=bottom;verticalAlign=top;html=1;shape=mxgraph.basic.rect;fillColor2=none;strokeWidth=0.5;size=20;indent=5;fillColor=#B3FF66;strokeColor=#000000;container=0;" parent="1" vertex="1">
          <mxGeometry x="212.5" y="240" width="15" height="15" as="geometry" />
        </mxCell>
        <mxCell id="TOQNIpB52cpntj8m0OE4-11" value="" style="verticalLabelPosition=bottom;verticalAlign=top;html=1;shape=mxgraph.basic.rect;fillColor2=none;strokeWidth=0.5;size=20;indent=5;fillColor=#B3FF66;strokeColor=#000000;container=0;" parent="1" vertex="1">
          <mxGeometry x="232.5" y="240" width="15" height="15" as="geometry" />
        </mxCell>
        <mxCell id="TOQNIpB52cpntj8m0OE4-12" value="" style="verticalLabelPosition=bottom;verticalAlign=top;html=1;shape=mxgraph.basic.rect;fillColor2=none;strokeWidth=0.5;size=20;indent=5;fillColor=#B3FF66;strokeColor=#000000;container=0;" parent="1" vertex="1">
          <mxGeometry x="252.5" y="240" width="15" height="15" as="geometry" />
        </mxCell>
        <mxCell id="TOQNIpB52cpntj8m0OE4-81" value="" style="verticalLabelPosition=bottom;verticalAlign=top;html=1;shape=mxgraph.basic.rect;fillColor2=none;strokeWidth=0.5;size=20;indent=5;fillColor=#B3FF66;strokeColor=#000000;container=0;" parent="1" vertex="1">
          <mxGeometry x="272.5" y="240" width="15" height="15" as="geometry" />
        </mxCell>
        <mxCell id="TOQNIpB52cpntj8m0OE4-82" value="" style="verticalLabelPosition=bottom;verticalAlign=top;html=1;shape=mxgraph.basic.rect;fillColor2=none;strokeWidth=0.5;size=20;indent=5;fillColor=#B3FF66;strokeColor=#000000;container=0;" parent="1" vertex="1">
          <mxGeometry x="292.5" y="240" width="15" height="15" as="geometry" />
        </mxCell>
        <mxCell id="TOQNIpB52cpntj8m0OE4-83" value="" style="verticalLabelPosition=bottom;verticalAlign=top;html=1;shape=mxgraph.basic.rect;fillColor2=none;strokeWidth=0.5;size=20;indent=5;fillColor=#B3FF66;strokeColor=#000000;container=0;" parent="1" vertex="1">
          <mxGeometry x="312.5" y="240" width="15" height="15" as="geometry" />
        </mxCell>
        <mxCell id="TOQNIpB52cpntj8m0OE4-84" value="" style="verticalLabelPosition=bottom;verticalAlign=top;html=1;shape=mxgraph.basic.rect;fillColor2=none;strokeWidth=0.5;size=20;indent=5;fillColor=#B3FF66;strokeColor=#000000;container=0;" parent="1" vertex="1">
          <mxGeometry x="332.5" y="240" width="15" height="15" as="geometry" />
        </mxCell>
        <mxCell id="TOQNIpB52cpntj8m0OE4-155" value="" style="verticalLabelPosition=bottom;verticalAlign=top;html=1;shape=mxgraph.basic.rect;fillColor2=none;strokeWidth=0.5;size=20;indent=5;fillColor=#B3FF66;strokeColor=#000000;container=0;" parent="1" vertex="1">
          <mxGeometry x="73" y="260" width="15" height="15" as="geometry" />
        </mxCell>
        <mxCell id="TOQNIpB52cpntj8m0OE4-156" value="" style="verticalLabelPosition=bottom;verticalAlign=top;html=1;shape=mxgraph.basic.rect;fillColor2=none;strokeWidth=0.5;size=20;indent=5;fillColor=#B3FF66;strokeColor=#000000;container=0;" parent="1" vertex="1">
          <mxGeometry x="93" y="260" width="15" height="15" as="geometry" />
        </mxCell>
        <mxCell id="TOQNIpB52cpntj8m0OE4-157" value="" style="verticalLabelPosition=bottom;verticalAlign=top;html=1;shape=mxgraph.basic.rect;fillColor2=none;strokeWidth=0.5;size=20;indent=5;fillColor=#B3FF66;strokeColor=#000000;container=0;" parent="1" vertex="1">
          <mxGeometry x="113" y="260" width="15" height="15" as="geometry" />
        </mxCell>
        <mxCell id="TOQNIpB52cpntj8m0OE4-158" value="" style="verticalLabelPosition=bottom;verticalAlign=top;html=1;shape=mxgraph.basic.rect;fillColor2=none;strokeWidth=0.5;size=20;indent=5;fillColor=#B3FF66;strokeColor=#000000;container=0;" parent="1" vertex="1">
          <mxGeometry x="133" y="260" width="15" height="15" as="geometry" />
        </mxCell>
        <mxCell id="TOQNIpB52cpntj8m0OE4-159" value="" style="verticalLabelPosition=bottom;verticalAlign=top;html=1;shape=mxgraph.basic.rect;fillColor2=none;strokeWidth=0.5;size=20;indent=5;fillColor=#B3FF66;strokeColor=#000000;container=0;" parent="1" vertex="1">
          <mxGeometry x="153" y="260" width="15" height="15" as="geometry" />
        </mxCell>
        <mxCell id="TOQNIpB52cpntj8m0OE4-160" value="" style="verticalLabelPosition=bottom;verticalAlign=top;html=1;shape=mxgraph.basic.rect;fillColor2=none;strokeWidth=0.5;size=20;indent=5;fillColor=#B3FF66;strokeColor=#000000;container=0;" parent="1" vertex="1">
          <mxGeometry x="173" y="260" width="15" height="15" as="geometry" />
        </mxCell>
        <mxCell id="TOQNIpB52cpntj8m0OE4-161" value="" style="verticalLabelPosition=bottom;verticalAlign=top;html=1;shape=mxgraph.basic.rect;fillColor2=none;strokeWidth=0.5;size=20;indent=5;fillColor=#B3FF66;strokeColor=#000000;container=0;" parent="1" vertex="1">
          <mxGeometry x="193" y="260" width="15" height="15" as="geometry" />
        </mxCell>
        <mxCell id="TOQNIpB52cpntj8m0OE4-162" value="" style="verticalLabelPosition=bottom;verticalAlign=top;html=1;shape=mxgraph.basic.rect;fillColor2=none;strokeWidth=0.5;size=20;indent=5;fillColor=#B3FF66;strokeColor=#000000;container=0;" parent="1" vertex="1">
          <mxGeometry x="213" y="260" width="15" height="15" as="geometry" />
        </mxCell>
        <mxCell id="TOQNIpB52cpntj8m0OE4-163" value="" style="verticalLabelPosition=bottom;verticalAlign=top;html=1;shape=mxgraph.basic.rect;fillColor2=none;strokeWidth=0.5;size=20;indent=5;fillColor=#B3FF66;strokeColor=#000000;container=0;" parent="1" vertex="1">
          <mxGeometry x="233" y="260" width="15" height="15" as="geometry" />
        </mxCell>
        <mxCell id="TOQNIpB52cpntj8m0OE4-164" value="" style="verticalLabelPosition=bottom;verticalAlign=top;html=1;shape=mxgraph.basic.rect;fillColor2=none;strokeWidth=0.5;size=20;indent=5;fillColor=#B3FF66;strokeColor=#000000;container=0;" parent="1" vertex="1">
          <mxGeometry x="253" y="260" width="15" height="15" as="geometry" />
        </mxCell>
        <mxCell id="TOQNIpB52cpntj8m0OE4-165" value="" style="verticalLabelPosition=bottom;verticalAlign=top;html=1;shape=mxgraph.basic.rect;fillColor2=none;strokeWidth=0.5;size=20;indent=5;fillColor=#B3FF66;strokeColor=#000000;container=0;" parent="1" vertex="1">
          <mxGeometry x="273" y="260" width="15" height="15" as="geometry" />
        </mxCell>
        <mxCell id="TOQNIpB52cpntj8m0OE4-166" value="" style="verticalLabelPosition=bottom;verticalAlign=top;html=1;shape=mxgraph.basic.rect;fillColor2=none;strokeWidth=0.5;size=20;indent=5;fillColor=#B3FF66;strokeColor=#000000;container=0;" parent="1" vertex="1">
          <mxGeometry x="293" y="260" width="15" height="15" as="geometry" />
        </mxCell>
        <mxCell id="TOQNIpB52cpntj8m0OE4-167" value="" style="verticalLabelPosition=bottom;verticalAlign=top;html=1;shape=mxgraph.basic.rect;fillColor2=none;strokeWidth=0.5;size=20;indent=5;fillColor=#B3FF66;strokeColor=#000000;container=0;" parent="1" vertex="1">
          <mxGeometry x="313" y="260" width="15" height="15" as="geometry" />
        </mxCell>
        <mxCell id="TOQNIpB52cpntj8m0OE4-168" value="" style="verticalLabelPosition=bottom;verticalAlign=top;html=1;shape=mxgraph.basic.rect;fillColor2=none;strokeWidth=0.5;size=20;indent=5;fillColor=#B3FF66;strokeColor=#000000;container=0;" parent="1" vertex="1">
          <mxGeometry x="333" y="260" width="15" height="15" as="geometry" />
        </mxCell>
        <mxCell id="TOQNIpB52cpntj8m0OE4-176" value="" style="verticalLabelPosition=bottom;verticalAlign=top;html=1;shape=mxgraph.basic.rect;fillColor2=none;strokeWidth=0.5;size=20;indent=5;fillColor=#B3FF66;strokeColor=#000000;container=0;" parent="1" vertex="1">
          <mxGeometry x="73" y="280" width="15" height="15" as="geometry" />
        </mxCell>
        <mxCell id="TOQNIpB52cpntj8m0OE4-177" value="" style="verticalLabelPosition=bottom;verticalAlign=top;html=1;shape=mxgraph.basic.rect;fillColor2=none;strokeWidth=0.5;size=20;indent=5;fillColor=#B3FF66;strokeColor=#000000;container=0;" parent="1" vertex="1">
          <mxGeometry x="93" y="280" width="15" height="15" as="geometry" />
        </mxCell>
        <mxCell id="TOQNIpB52cpntj8m0OE4-178" value="" style="verticalLabelPosition=bottom;verticalAlign=top;html=1;shape=mxgraph.basic.rect;fillColor2=none;strokeWidth=0.5;size=20;indent=5;fillColor=#B3FF66;strokeColor=#000000;container=0;" parent="1" vertex="1">
          <mxGeometry x="113" y="280" width="15" height="15" as="geometry" />
        </mxCell>
        <mxCell id="TOQNIpB52cpntj8m0OE4-179" value="" style="verticalLabelPosition=bottom;verticalAlign=top;html=1;shape=mxgraph.basic.rect;fillColor2=none;strokeWidth=0.5;size=20;indent=5;fillColor=#B3FF66;strokeColor=#000000;container=0;" parent="1" vertex="1">
          <mxGeometry x="133" y="280" width="15" height="15" as="geometry" />
        </mxCell>
        <mxCell id="TOQNIpB52cpntj8m0OE4-180" value="" style="verticalLabelPosition=bottom;verticalAlign=top;html=1;shape=mxgraph.basic.rect;fillColor2=none;strokeWidth=0.5;size=20;indent=5;fillColor=#B3FF66;strokeColor=#000000;container=0;" parent="1" vertex="1">
          <mxGeometry x="153" y="280" width="15" height="15" as="geometry" />
        </mxCell>
        <mxCell id="TOQNIpB52cpntj8m0OE4-181" value="" style="verticalLabelPosition=bottom;verticalAlign=top;html=1;shape=mxgraph.basic.rect;fillColor2=none;strokeWidth=0.5;size=20;indent=5;fillColor=#B3FF66;strokeColor=#000000;container=0;" parent="1" vertex="1">
          <mxGeometry x="173" y="280" width="15" height="15" as="geometry" />
        </mxCell>
        <mxCell id="TOQNIpB52cpntj8m0OE4-182" value="" style="verticalLabelPosition=bottom;verticalAlign=top;html=1;shape=mxgraph.basic.rect;fillColor2=none;strokeWidth=0.5;size=20;indent=5;fillColor=#B3FF66;strokeColor=#000000;container=0;" parent="1" vertex="1">
          <mxGeometry x="193" y="280" width="15" height="15" as="geometry" />
        </mxCell>
        <mxCell id="TOQNIpB52cpntj8m0OE4-183" value="" style="verticalLabelPosition=bottom;verticalAlign=top;html=1;shape=mxgraph.basic.rect;fillColor2=none;strokeWidth=0.5;size=20;indent=5;fillColor=#B3FF66;strokeColor=#000000;container=0;" parent="1" vertex="1">
          <mxGeometry x="213" y="280" width="15" height="15" as="geometry" />
        </mxCell>
        <mxCell id="TOQNIpB52cpntj8m0OE4-184" value="" style="verticalLabelPosition=bottom;verticalAlign=top;html=1;shape=mxgraph.basic.rect;fillColor2=none;strokeWidth=0.5;size=20;indent=5;fillColor=#B3FF66;strokeColor=#000000;container=0;" parent="1" vertex="1">
          <mxGeometry x="233" y="280" width="15" height="15" as="geometry" />
        </mxCell>
        <mxCell id="TOQNIpB52cpntj8m0OE4-185" value="" style="verticalLabelPosition=bottom;verticalAlign=top;html=1;shape=mxgraph.basic.rect;fillColor2=none;strokeWidth=0.5;size=20;indent=5;fillColor=#B3FF66;strokeColor=#000000;container=0;" parent="1" vertex="1">
          <mxGeometry x="253" y="280" width="15" height="15" as="geometry" />
        </mxCell>
        <mxCell id="TOQNIpB52cpntj8m0OE4-186" value="" style="verticalLabelPosition=bottom;verticalAlign=top;html=1;shape=mxgraph.basic.rect;fillColor2=none;strokeWidth=0.5;size=20;indent=5;fillColor=#B3FF66;strokeColor=#000000;container=0;" parent="1" vertex="1">
          <mxGeometry x="273" y="280" width="15" height="15" as="geometry" />
        </mxCell>
        <mxCell id="TOQNIpB52cpntj8m0OE4-187" value="" style="verticalLabelPosition=bottom;verticalAlign=top;html=1;shape=mxgraph.basic.rect;fillColor2=none;strokeWidth=0.5;size=20;indent=5;fillColor=#B3FF66;strokeColor=#000000;container=0;" parent="1" vertex="1">
          <mxGeometry x="293" y="280" width="15" height="15" as="geometry" />
        </mxCell>
        <mxCell id="TOQNIpB52cpntj8m0OE4-188" value="" style="verticalLabelPosition=bottom;verticalAlign=top;html=1;shape=mxgraph.basic.rect;fillColor2=none;strokeWidth=0.5;size=20;indent=5;fillColor=#B3FF66;strokeColor=#000000;container=0;" parent="1" vertex="1">
          <mxGeometry x="313" y="280" width="15" height="15" as="geometry" />
        </mxCell>
        <mxCell id="TOQNIpB52cpntj8m0OE4-189" value="" style="verticalLabelPosition=bottom;verticalAlign=top;html=1;shape=mxgraph.basic.rect;fillColor2=none;strokeWidth=0.5;size=20;indent=5;fillColor=#B3FF66;strokeColor=#000000;container=0;" parent="1" vertex="1">
          <mxGeometry x="333" y="280" width="15" height="15" as="geometry" />
        </mxCell>
        <mxCell id="TOQNIpB52cpntj8m0OE4-197" value="" style="verticalLabelPosition=bottom;verticalAlign=top;html=1;shape=mxgraph.basic.rect;fillColor2=none;strokeWidth=0.5;size=20;indent=5;fillColor=#B3FF66;strokeColor=#000000;container=0;" parent="1" vertex="1">
          <mxGeometry x="73" y="300" width="15" height="15" as="geometry" />
        </mxCell>
        <mxCell id="TOQNIpB52cpntj8m0OE4-198" value="" style="verticalLabelPosition=bottom;verticalAlign=top;html=1;shape=mxgraph.basic.rect;fillColor2=none;strokeWidth=0.5;size=20;indent=5;fillColor=#B3FF66;strokeColor=#000000;container=0;" parent="1" vertex="1">
          <mxGeometry x="93" y="300" width="15" height="15" as="geometry" />
        </mxCell>
        <mxCell id="TOQNIpB52cpntj8m0OE4-199" value="" style="verticalLabelPosition=bottom;verticalAlign=top;html=1;shape=mxgraph.basic.rect;fillColor2=none;strokeWidth=0.5;size=20;indent=5;fillColor=#B3FF66;strokeColor=#000000;container=0;" parent="1" vertex="1">
          <mxGeometry x="113" y="300" width="15" height="15" as="geometry" />
        </mxCell>
        <mxCell id="TOQNIpB52cpntj8m0OE4-200" value="" style="verticalLabelPosition=bottom;verticalAlign=top;html=1;shape=mxgraph.basic.rect;fillColor2=none;strokeWidth=0.5;size=20;indent=5;fillColor=#B3FF66;strokeColor=#000000;container=0;" parent="1" vertex="1">
          <mxGeometry x="133" y="300" width="15" height="15" as="geometry" />
        </mxCell>
        <mxCell id="TOQNIpB52cpntj8m0OE4-201" value="" style="verticalLabelPosition=bottom;verticalAlign=top;html=1;shape=mxgraph.basic.rect;fillColor2=none;strokeWidth=0.5;size=20;indent=5;fillColor=#B3FF66;strokeColor=#000000;container=0;" parent="1" vertex="1">
          <mxGeometry x="153" y="300" width="15" height="15" as="geometry" />
        </mxCell>
        <mxCell id="TOQNIpB52cpntj8m0OE4-202" value="" style="verticalLabelPosition=bottom;verticalAlign=top;html=1;shape=mxgraph.basic.rect;fillColor2=none;strokeWidth=0.5;size=20;indent=5;fillColor=#B3FF66;strokeColor=#000000;container=0;" parent="1" vertex="1">
          <mxGeometry x="173" y="300" width="15" height="15" as="geometry" />
        </mxCell>
        <mxCell id="TOQNIpB52cpntj8m0OE4-203" value="" style="verticalLabelPosition=bottom;verticalAlign=top;html=1;shape=mxgraph.basic.rect;fillColor2=none;strokeWidth=0.5;size=20;indent=5;fillColor=#B3FF66;strokeColor=#000000;container=0;" parent="1" vertex="1">
          <mxGeometry x="193" y="300" width="15" height="15" as="geometry" />
        </mxCell>
        <mxCell id="TOQNIpB52cpntj8m0OE4-204" value="" style="verticalLabelPosition=bottom;verticalAlign=top;html=1;shape=mxgraph.basic.rect;fillColor2=none;strokeWidth=0.5;size=20;indent=5;fillColor=#B3FF66;strokeColor=#000000;container=0;" parent="1" vertex="1">
          <mxGeometry x="213" y="300" width="15" height="15" as="geometry" />
        </mxCell>
        <mxCell id="TOQNIpB52cpntj8m0OE4-205" value="" style="verticalLabelPosition=bottom;verticalAlign=top;html=1;shape=mxgraph.basic.rect;fillColor2=none;strokeWidth=0.5;size=20;indent=5;fillColor=#B3FF66;strokeColor=#000000;container=0;" parent="1" vertex="1">
          <mxGeometry x="233" y="300" width="15" height="15" as="geometry" />
        </mxCell>
        <mxCell id="TOQNIpB52cpntj8m0OE4-206" value="" style="verticalLabelPosition=bottom;verticalAlign=top;html=1;shape=mxgraph.basic.rect;fillColor2=none;strokeWidth=0.5;size=20;indent=5;fillColor=#B3FF66;strokeColor=#000000;container=0;" parent="1" vertex="1">
          <mxGeometry x="253" y="300" width="15" height="15" as="geometry" />
        </mxCell>
        <mxCell id="TOQNIpB52cpntj8m0OE4-207" value="" style="verticalLabelPosition=bottom;verticalAlign=top;html=1;shape=mxgraph.basic.rect;fillColor2=none;strokeWidth=0.5;size=20;indent=5;fillColor=#B3FF66;strokeColor=#000000;container=0;" parent="1" vertex="1">
          <mxGeometry x="273" y="300" width="15" height="15" as="geometry" />
        </mxCell>
        <mxCell id="TOQNIpB52cpntj8m0OE4-208" value="" style="verticalLabelPosition=bottom;verticalAlign=top;html=1;shape=mxgraph.basic.rect;fillColor2=none;strokeWidth=0.5;size=20;indent=5;fillColor=#B3FF66;strokeColor=#000000;container=0;" parent="1" vertex="1">
          <mxGeometry x="293" y="300" width="15" height="15" as="geometry" />
        </mxCell>
        <mxCell id="TOQNIpB52cpntj8m0OE4-209" value="" style="verticalLabelPosition=bottom;verticalAlign=top;html=1;shape=mxgraph.basic.rect;fillColor2=none;strokeWidth=0.5;size=20;indent=5;fillColor=#B3FF66;strokeColor=#000000;container=0;" parent="1" vertex="1">
          <mxGeometry x="313" y="300" width="15" height="15" as="geometry" />
        </mxCell>
        <mxCell id="TOQNIpB52cpntj8m0OE4-210" value="" style="verticalLabelPosition=bottom;verticalAlign=top;html=1;shape=mxgraph.basic.rect;fillColor2=none;strokeWidth=0.5;size=20;indent=5;fillColor=#B3FF66;strokeColor=#000000;container=0;" parent="1" vertex="1">
          <mxGeometry x="333" y="300" width="15" height="15" as="geometry" />
        </mxCell>
        <mxCell id="TOQNIpB52cpntj8m0OE4-218" value="" style="verticalLabelPosition=bottom;verticalAlign=top;html=1;shape=mxgraph.basic.rect;fillColor2=none;strokeWidth=0.5;size=20;indent=5;fillColor=#B3FF66;strokeColor=#000000;container=0;" parent="1" vertex="1">
          <mxGeometry x="73" y="320" width="15" height="15" as="geometry" />
        </mxCell>
        <mxCell id="TOQNIpB52cpntj8m0OE4-219" value="" style="verticalLabelPosition=bottom;verticalAlign=top;html=1;shape=mxgraph.basic.rect;fillColor2=none;strokeWidth=0.5;size=20;indent=5;fillColor=#B3FF66;strokeColor=#000000;container=0;" parent="1" vertex="1">
          <mxGeometry x="93" y="320" width="15" height="15" as="geometry" />
        </mxCell>
        <mxCell id="TOQNIpB52cpntj8m0OE4-220" value="" style="verticalLabelPosition=bottom;verticalAlign=top;html=1;shape=mxgraph.basic.rect;fillColor2=none;strokeWidth=0.5;size=20;indent=5;fillColor=#B3FF66;strokeColor=#000000;container=0;" parent="1" vertex="1">
          <mxGeometry x="113" y="320" width="15" height="15" as="geometry" />
        </mxCell>
        <mxCell id="TOQNIpB52cpntj8m0OE4-221" value="" style="verticalLabelPosition=bottom;verticalAlign=top;html=1;shape=mxgraph.basic.rect;fillColor2=none;strokeWidth=0.5;size=20;indent=5;fillColor=#B3FF66;strokeColor=#000000;container=0;" parent="1" vertex="1">
          <mxGeometry x="133" y="320" width="15" height="15" as="geometry" />
        </mxCell>
        <mxCell id="TOQNIpB52cpntj8m0OE4-222" value="" style="verticalLabelPosition=bottom;verticalAlign=top;html=1;shape=mxgraph.basic.rect;fillColor2=none;strokeWidth=0.5;size=20;indent=5;fillColor=#B3FF66;strokeColor=#000000;container=0;" parent="1" vertex="1">
          <mxGeometry x="153" y="320" width="15" height="15" as="geometry" />
        </mxCell>
        <mxCell id="TOQNIpB52cpntj8m0OE4-223" value="" style="verticalLabelPosition=bottom;verticalAlign=top;html=1;shape=mxgraph.basic.rect;fillColor2=none;strokeWidth=0.5;size=20;indent=5;fillColor=#B3FF66;strokeColor=#000000;container=0;" parent="1" vertex="1">
          <mxGeometry x="173" y="320" width="15" height="15" as="geometry" />
        </mxCell>
        <mxCell id="TOQNIpB52cpntj8m0OE4-224" value="" style="verticalLabelPosition=bottom;verticalAlign=top;html=1;shape=mxgraph.basic.rect;fillColor2=none;strokeWidth=0.5;size=20;indent=5;fillColor=#B3FF66;strokeColor=#000000;container=0;" parent="1" vertex="1">
          <mxGeometry x="193" y="320" width="15" height="15" as="geometry" />
        </mxCell>
        <mxCell id="TOQNIpB52cpntj8m0OE4-225" value="" style="verticalLabelPosition=bottom;verticalAlign=top;html=1;shape=mxgraph.basic.rect;fillColor2=none;strokeWidth=0.5;size=20;indent=5;fillColor=#B3FF66;strokeColor=#000000;container=0;" parent="1" vertex="1">
          <mxGeometry x="213" y="320" width="15" height="15" as="geometry" />
        </mxCell>
        <mxCell id="TOQNIpB52cpntj8m0OE4-226" value="" style="verticalLabelPosition=bottom;verticalAlign=top;html=1;shape=mxgraph.basic.rect;fillColor2=none;strokeWidth=0.5;size=20;indent=5;fillColor=#B3FF66;strokeColor=#000000;container=0;" parent="1" vertex="1">
          <mxGeometry x="233" y="320" width="15" height="15" as="geometry" />
        </mxCell>
        <mxCell id="TOQNIpB52cpntj8m0OE4-227" value="" style="verticalLabelPosition=bottom;verticalAlign=top;html=1;shape=mxgraph.basic.rect;fillColor2=none;strokeWidth=0.5;size=20;indent=5;fillColor=#B3FF66;strokeColor=#000000;container=0;" parent="1" vertex="1">
          <mxGeometry x="253" y="320" width="15" height="15" as="geometry" />
        </mxCell>
        <mxCell id="TOQNIpB52cpntj8m0OE4-228" value="" style="verticalLabelPosition=bottom;verticalAlign=top;html=1;shape=mxgraph.basic.rect;fillColor2=none;strokeWidth=0.5;size=20;indent=5;fillColor=#B3FF66;strokeColor=#000000;container=0;" parent="1" vertex="1">
          <mxGeometry x="273" y="320" width="15" height="15" as="geometry" />
        </mxCell>
        <mxCell id="TOQNIpB52cpntj8m0OE4-229" value="" style="verticalLabelPosition=bottom;verticalAlign=top;html=1;shape=mxgraph.basic.rect;fillColor2=none;strokeWidth=0.5;size=20;indent=5;fillColor=#B3FF66;strokeColor=#000000;container=0;" parent="1" vertex="1">
          <mxGeometry x="293" y="320" width="15" height="15" as="geometry" />
        </mxCell>
        <mxCell id="TOQNIpB52cpntj8m0OE4-230" value="" style="verticalLabelPosition=bottom;verticalAlign=top;html=1;shape=mxgraph.basic.rect;fillColor2=none;strokeWidth=0.5;size=20;indent=5;fillColor=#B3FF66;strokeColor=#000000;container=0;" parent="1" vertex="1">
          <mxGeometry x="313" y="320" width="15" height="15" as="geometry" />
        </mxCell>
        <mxCell id="TOQNIpB52cpntj8m0OE4-231" value="" style="verticalLabelPosition=bottom;verticalAlign=top;html=1;shape=mxgraph.basic.rect;fillColor2=none;strokeWidth=0.5;size=20;indent=5;fillColor=#B3FF66;strokeColor=#000000;container=0;" parent="1" vertex="1">
          <mxGeometry x="333" y="320" width="15" height="15" as="geometry" />
        </mxCell>
        <mxCell id="TOQNIpB52cpntj8m0OE4-239" value="" style="verticalLabelPosition=bottom;verticalAlign=top;html=1;shape=mxgraph.basic.rect;fillColor2=none;strokeWidth=0.5;size=20;indent=5;fillColor=#B3FF66;strokeColor=#000000;container=0;" parent="1" vertex="1">
          <mxGeometry x="73" y="340" width="15" height="15" as="geometry" />
        </mxCell>
        <mxCell id="TOQNIpB52cpntj8m0OE4-240" value="" style="verticalLabelPosition=bottom;verticalAlign=top;html=1;shape=mxgraph.basic.rect;fillColor2=none;strokeWidth=0.5;size=20;indent=5;fillColor=#B3FF66;strokeColor=#000000;container=0;" parent="1" vertex="1">
          <mxGeometry x="93" y="340" width="15" height="15" as="geometry" />
        </mxCell>
        <mxCell id="TOQNIpB52cpntj8m0OE4-241" value="" style="verticalLabelPosition=bottom;verticalAlign=top;html=1;shape=mxgraph.basic.rect;fillColor2=none;strokeWidth=0.5;size=20;indent=5;fillColor=#B3FF66;strokeColor=#000000;container=0;" parent="1" vertex="1">
          <mxGeometry x="113" y="340" width="15" height="15" as="geometry" />
        </mxCell>
        <mxCell id="TOQNIpB52cpntj8m0OE4-242" value="" style="verticalLabelPosition=bottom;verticalAlign=top;html=1;shape=mxgraph.basic.rect;fillColor2=none;strokeWidth=0.5;size=20;indent=5;fillColor=#B3FF66;strokeColor=#000000;container=0;" parent="1" vertex="1">
          <mxGeometry x="133" y="340" width="15" height="15" as="geometry" />
        </mxCell>
        <mxCell id="TOQNIpB52cpntj8m0OE4-243" value="" style="verticalLabelPosition=bottom;verticalAlign=top;html=1;shape=mxgraph.basic.rect;fillColor2=none;strokeWidth=0.5;size=20;indent=5;fillColor=#B3FF66;strokeColor=#000000;container=0;" parent="1" vertex="1">
          <mxGeometry x="153" y="340" width="15" height="15" as="geometry" />
        </mxCell>
        <mxCell id="TOQNIpB52cpntj8m0OE4-244" value="" style="verticalLabelPosition=bottom;verticalAlign=top;html=1;shape=mxgraph.basic.rect;fillColor2=none;strokeWidth=0.5;size=20;indent=5;fillColor=#B3FF66;strokeColor=#000000;container=0;" parent="1" vertex="1">
          <mxGeometry x="173" y="340" width="15" height="15" as="geometry" />
        </mxCell>
        <mxCell id="TOQNIpB52cpntj8m0OE4-245" value="" style="verticalLabelPosition=bottom;verticalAlign=top;html=1;shape=mxgraph.basic.rect;fillColor2=none;strokeWidth=0.5;size=20;indent=5;fillColor=#B3FF66;strokeColor=#000000;container=0;" parent="1" vertex="1">
          <mxGeometry x="193" y="340" width="15" height="15" as="geometry" />
        </mxCell>
        <mxCell id="TOQNIpB52cpntj8m0OE4-246" value="" style="verticalLabelPosition=bottom;verticalAlign=top;html=1;shape=mxgraph.basic.rect;fillColor2=none;strokeWidth=0.5;size=20;indent=5;fillColor=#B3FF66;strokeColor=#000000;container=0;" parent="1" vertex="1">
          <mxGeometry x="213" y="340" width="15" height="15" as="geometry" />
        </mxCell>
        <mxCell id="TOQNIpB52cpntj8m0OE4-247" value="" style="verticalLabelPosition=bottom;verticalAlign=top;html=1;shape=mxgraph.basic.rect;fillColor2=none;strokeWidth=0.5;size=20;indent=5;fillColor=#B3FF66;strokeColor=#000000;container=0;" parent="1" vertex="1">
          <mxGeometry x="233" y="340" width="15" height="15" as="geometry" />
        </mxCell>
        <mxCell id="TOQNIpB52cpntj8m0OE4-248" value="" style="verticalLabelPosition=bottom;verticalAlign=top;html=1;shape=mxgraph.basic.rect;fillColor2=none;strokeWidth=0.5;size=20;indent=5;fillColor=#B3FF66;strokeColor=#000000;container=0;" parent="1" vertex="1">
          <mxGeometry x="253" y="340" width="15" height="15" as="geometry" />
        </mxCell>
        <mxCell id="TOQNIpB52cpntj8m0OE4-249" value="" style="verticalLabelPosition=bottom;verticalAlign=top;html=1;shape=mxgraph.basic.rect;fillColor2=none;strokeWidth=0.5;size=20;indent=5;fillColor=#B3FF66;strokeColor=#000000;container=0;" parent="1" vertex="1">
          <mxGeometry x="273" y="340" width="15" height="15" as="geometry" />
        </mxCell>
        <mxCell id="TOQNIpB52cpntj8m0OE4-250" value="" style="verticalLabelPosition=bottom;verticalAlign=top;html=1;shape=mxgraph.basic.rect;fillColor2=none;strokeWidth=0.5;size=20;indent=5;fillColor=#B3FF66;strokeColor=#000000;container=0;" parent="1" vertex="1">
          <mxGeometry x="293" y="340" width="15" height="15" as="geometry" />
        </mxCell>
        <mxCell id="TOQNIpB52cpntj8m0OE4-251" value="" style="verticalLabelPosition=bottom;verticalAlign=top;html=1;shape=mxgraph.basic.rect;fillColor2=none;strokeWidth=0.5;size=20;indent=5;fillColor=#B3FF66;strokeColor=#000000;container=0;" parent="1" vertex="1">
          <mxGeometry x="313" y="340" width="15" height="15" as="geometry" />
        </mxCell>
        <mxCell id="TOQNIpB52cpntj8m0OE4-252" value="" style="verticalLabelPosition=bottom;verticalAlign=top;html=1;shape=mxgraph.basic.rect;fillColor2=none;strokeWidth=0.5;size=20;indent=5;fillColor=#B3FF66;strokeColor=#000000;container=0;" parent="1" vertex="1">
          <mxGeometry x="333" y="340" width="15" height="15" as="geometry" />
        </mxCell>
        <mxCell id="TOQNIpB52cpntj8m0OE4-260" value="" style="verticalLabelPosition=bottom;verticalAlign=top;html=1;shape=mxgraph.basic.rect;fillColor2=none;strokeWidth=0.5;size=20;indent=5;fillColor=#B3FF66;strokeColor=#000000;container=0;" parent="1" vertex="1">
          <mxGeometry x="73" y="360" width="15" height="15" as="geometry" />
        </mxCell>
        <mxCell id="TOQNIpB52cpntj8m0OE4-261" value="" style="verticalLabelPosition=bottom;verticalAlign=top;html=1;shape=mxgraph.basic.rect;fillColor2=none;strokeWidth=0.5;size=20;indent=5;fillColor=#B3FF66;strokeColor=#000000;container=0;" parent="1" vertex="1">
          <mxGeometry x="93" y="360" width="15" height="15" as="geometry" />
        </mxCell>
        <mxCell id="TOQNIpB52cpntj8m0OE4-262" value="" style="verticalLabelPosition=bottom;verticalAlign=top;html=1;shape=mxgraph.basic.rect;fillColor2=none;strokeWidth=0.5;size=20;indent=5;fillColor=#B3FF66;strokeColor=#000000;container=0;" parent="1" vertex="1">
          <mxGeometry x="113" y="360" width="15" height="15" as="geometry" />
        </mxCell>
        <mxCell id="TOQNIpB52cpntj8m0OE4-263" value="" style="verticalLabelPosition=bottom;verticalAlign=top;html=1;shape=mxgraph.basic.rect;fillColor2=none;strokeWidth=0.5;size=20;indent=5;fillColor=#B3FF66;strokeColor=#000000;container=0;" parent="1" vertex="1">
          <mxGeometry x="133" y="360" width="15" height="15" as="geometry" />
        </mxCell>
        <mxCell id="TOQNIpB52cpntj8m0OE4-264" value="" style="verticalLabelPosition=bottom;verticalAlign=top;html=1;shape=mxgraph.basic.rect;fillColor2=none;strokeWidth=0.5;size=20;indent=5;fillColor=#B3FF66;strokeColor=#000000;container=0;" parent="1" vertex="1">
          <mxGeometry x="153" y="360" width="15" height="15" as="geometry" />
        </mxCell>
        <mxCell id="TOQNIpB52cpntj8m0OE4-265" value="" style="verticalLabelPosition=bottom;verticalAlign=top;html=1;shape=mxgraph.basic.rect;fillColor2=none;strokeWidth=0.5;size=20;indent=5;fillColor=#B3FF66;strokeColor=#000000;container=0;" parent="1" vertex="1">
          <mxGeometry x="173" y="360" width="15" height="15" as="geometry" />
        </mxCell>
        <mxCell id="TOQNIpB52cpntj8m0OE4-266" value="" style="verticalLabelPosition=bottom;verticalAlign=top;html=1;shape=mxgraph.basic.rect;fillColor2=none;strokeWidth=0.5;size=20;indent=5;fillColor=#B3FF66;strokeColor=#000000;container=0;" parent="1" vertex="1">
          <mxGeometry x="193" y="360" width="15" height="15" as="geometry" />
        </mxCell>
        <mxCell id="TOQNIpB52cpntj8m0OE4-267" value="" style="verticalLabelPosition=bottom;verticalAlign=top;html=1;shape=mxgraph.basic.rect;fillColor2=none;strokeWidth=0.5;size=20;indent=5;fillColor=#B3FF66;strokeColor=#000000;container=0;" parent="1" vertex="1">
          <mxGeometry x="213" y="360" width="15" height="15" as="geometry" />
        </mxCell>
        <mxCell id="TOQNIpB52cpntj8m0OE4-268" value="" style="verticalLabelPosition=bottom;verticalAlign=top;html=1;shape=mxgraph.basic.rect;fillColor2=none;strokeWidth=0.5;size=20;indent=5;fillColor=#B3FF66;strokeColor=#000000;container=0;" parent="1" vertex="1">
          <mxGeometry x="233" y="360" width="15" height="15" as="geometry" />
        </mxCell>
        <mxCell id="TOQNIpB52cpntj8m0OE4-269" value="" style="verticalLabelPosition=bottom;verticalAlign=top;html=1;shape=mxgraph.basic.rect;fillColor2=none;strokeWidth=0.5;size=20;indent=5;fillColor=#B3FF66;strokeColor=#000000;container=0;" parent="1" vertex="1">
          <mxGeometry x="253" y="360" width="15" height="15" as="geometry" />
        </mxCell>
        <mxCell id="TOQNIpB52cpntj8m0OE4-270" value="" style="verticalLabelPosition=bottom;verticalAlign=top;html=1;shape=mxgraph.basic.rect;fillColor2=none;strokeWidth=0.5;size=20;indent=5;fillColor=#B3FF66;strokeColor=#000000;container=0;" parent="1" vertex="1">
          <mxGeometry x="273" y="360" width="15" height="15" as="geometry" />
        </mxCell>
        <mxCell id="TOQNIpB52cpntj8m0OE4-271" value="" style="verticalLabelPosition=bottom;verticalAlign=top;html=1;shape=mxgraph.basic.rect;fillColor2=none;strokeWidth=0.5;size=20;indent=5;fillColor=#B3FF66;strokeColor=#000000;container=0;" parent="1" vertex="1">
          <mxGeometry x="293" y="360" width="15" height="15" as="geometry" />
        </mxCell>
        <mxCell id="TOQNIpB52cpntj8m0OE4-272" value="" style="verticalLabelPosition=bottom;verticalAlign=top;html=1;shape=mxgraph.basic.rect;fillColor2=none;strokeWidth=0.5;size=20;indent=5;fillColor=#B3FF66;strokeColor=#000000;container=0;" parent="1" vertex="1">
          <mxGeometry x="313" y="360" width="15" height="15" as="geometry" />
        </mxCell>
        <mxCell id="TOQNIpB52cpntj8m0OE4-273" value="" style="verticalLabelPosition=bottom;verticalAlign=top;html=1;shape=mxgraph.basic.rect;fillColor2=none;strokeWidth=0.5;size=20;indent=5;fillColor=#B3FF66;strokeColor=#000000;container=0;" parent="1" vertex="1">
          <mxGeometry x="333" y="360" width="15" height="15" as="geometry" />
        </mxCell>
        <mxCell id="TOQNIpB52cpntj8m0OE4-467" value="&lt;font style=&quot;font-size: 22px;&quot;&gt;SM &lt;i&gt;n&lt;/i&gt;&lt;/font&gt;" style="text;html=1;strokeColor=none;fillColor=none;align=center;verticalAlign=middle;whiteSpace=wrap;rounded=0;fontFamily=Times New Roman;" parent="1" vertex="1">
          <mxGeometry x="429" y="170" width="71" height="30" as="geometry" />
        </mxCell>
        <mxCell id="TOQNIpB52cpntj8m0OE4-306" value="" style="rounded=0;whiteSpace=wrap;html=1;arcSize=4;imageAspect=0;fillColor=#E8E8BA;" parent="1" vertex="1">
          <mxGeometry x="432" y="200" width="338" height="240" as="geometry" />
        </mxCell>
        <mxCell id="TOQNIpB52cpntj8m0OE4-307" value="&lt;font style=&quot;font-size: 18px;&quot;&gt;Threads&lt;/font&gt;" style="text;html=1;strokeColor=none;fillColor=none;align=center;verticalAlign=middle;whiteSpace=wrap;rounded=0;" parent="1" vertex="1">
          <mxGeometry x="456" y="203" width="290" height="30" as="geometry" />
        </mxCell>
        <mxCell id="TOQNIpB52cpntj8m0OE4-455" value="" style="rounded=1;whiteSpace=wrap;html=1;fillColor=#dae8fc;strokeColor=#000000;" parent="1" vertex="1">
          <mxGeometry x="442" y="390" width="318" height="40" as="geometry" />
        </mxCell>
        <mxCell id="TOQNIpB52cpntj8m0OE4-456" value="&lt;font style=&quot;font-size: 18px;&quot;&gt;Shared memory&lt;/font&gt;" style="text;html=1;strokeColor=none;fillColor=none;align=center;verticalAlign=middle;whiteSpace=wrap;rounded=0;" parent="1" vertex="1">
          <mxGeometry x="473" y="395" width="256" height="30" as="geometry" />
        </mxCell>
        <mxCell id="TOQNIpB52cpntj8m0OE4-309" value="" style="verticalLabelPosition=bottom;verticalAlign=top;html=1;shape=mxgraph.basic.rect;fillColor2=none;strokeWidth=0.5;size=20;indent=5;fillColor=#B3FF66;strokeColor=#000000;container=0;" parent="1" vertex="1">
          <mxGeometry x="464.5" y="240" width="15" height="15" as="geometry" />
        </mxCell>
        <mxCell id="TOQNIpB52cpntj8m0OE4-310" value="" style="verticalLabelPosition=bottom;verticalAlign=top;html=1;shape=mxgraph.basic.rect;fillColor2=none;strokeWidth=0.5;size=20;indent=5;fillColor=#B3FF66;strokeColor=#000000;container=0;" parent="1" vertex="1">
          <mxGeometry x="484.5" y="240" width="15" height="15" as="geometry" />
        </mxCell>
        <mxCell id="TOQNIpB52cpntj8m0OE4-311" value="" style="verticalLabelPosition=bottom;verticalAlign=top;html=1;shape=mxgraph.basic.rect;fillColor2=none;strokeWidth=0.5;size=20;indent=5;fillColor=#B3FF66;strokeColor=#000000;container=0;" parent="1" vertex="1">
          <mxGeometry x="504.5" y="240" width="15" height="15" as="geometry" />
        </mxCell>
        <mxCell id="TOQNIpB52cpntj8m0OE4-312" value="" style="verticalLabelPosition=bottom;verticalAlign=top;html=1;shape=mxgraph.basic.rect;fillColor2=none;strokeWidth=0.5;size=20;indent=5;fillColor=#B3FF66;strokeColor=#000000;container=0;" parent="1" vertex="1">
          <mxGeometry x="524.5" y="240" width="15" height="15" as="geometry" />
        </mxCell>
        <mxCell id="TOQNIpB52cpntj8m0OE4-313" value="" style="verticalLabelPosition=bottom;verticalAlign=top;html=1;shape=mxgraph.basic.rect;fillColor2=none;strokeWidth=0.5;size=20;indent=5;fillColor=#B3FF66;strokeColor=#000000;container=0;" parent="1" vertex="1">
          <mxGeometry x="544.5" y="240" width="15" height="15" as="geometry" />
        </mxCell>
        <mxCell id="TOQNIpB52cpntj8m0OE4-314" value="" style="verticalLabelPosition=bottom;verticalAlign=top;html=1;shape=mxgraph.basic.rect;fillColor2=none;strokeWidth=0.5;size=20;indent=5;fillColor=#B3FF66;strokeColor=#000000;container=0;" parent="1" vertex="1">
          <mxGeometry x="564.5" y="240" width="15" height="15" as="geometry" />
        </mxCell>
        <mxCell id="TOQNIpB52cpntj8m0OE4-315" value="" style="verticalLabelPosition=bottom;verticalAlign=top;html=1;shape=mxgraph.basic.rect;fillColor2=none;strokeWidth=0.5;size=20;indent=5;fillColor=#B3FF66;strokeColor=#000000;container=0;" parent="1" vertex="1">
          <mxGeometry x="584.5" y="240" width="15" height="15" as="geometry" />
        </mxCell>
        <mxCell id="TOQNIpB52cpntj8m0OE4-316" value="" style="verticalLabelPosition=bottom;verticalAlign=top;html=1;shape=mxgraph.basic.rect;fillColor2=none;strokeWidth=0.5;size=20;indent=5;fillColor=#B3FF66;strokeColor=#000000;container=0;" parent="1" vertex="1">
          <mxGeometry x="604.5" y="240" width="15" height="15" as="geometry" />
        </mxCell>
        <mxCell id="TOQNIpB52cpntj8m0OE4-317" value="" style="verticalLabelPosition=bottom;verticalAlign=top;html=1;shape=mxgraph.basic.rect;fillColor2=none;strokeWidth=0.5;size=20;indent=5;fillColor=#B3FF66;strokeColor=#000000;container=0;" parent="1" vertex="1">
          <mxGeometry x="624.5" y="240" width="15" height="15" as="geometry" />
        </mxCell>
        <mxCell id="TOQNIpB52cpntj8m0OE4-318" value="" style="verticalLabelPosition=bottom;verticalAlign=top;html=1;shape=mxgraph.basic.rect;fillColor2=none;strokeWidth=0.5;size=20;indent=5;fillColor=#B3FF66;strokeColor=#000000;container=0;" parent="1" vertex="1">
          <mxGeometry x="644.5" y="240" width="15" height="15" as="geometry" />
        </mxCell>
        <mxCell id="TOQNIpB52cpntj8m0OE4-319" value="" style="verticalLabelPosition=bottom;verticalAlign=top;html=1;shape=mxgraph.basic.rect;fillColor2=none;strokeWidth=0.5;size=20;indent=5;fillColor=#B3FF66;strokeColor=#000000;container=0;" parent="1" vertex="1">
          <mxGeometry x="664.5" y="240" width="15" height="15" as="geometry" />
        </mxCell>
        <mxCell id="TOQNIpB52cpntj8m0OE4-320" value="" style="verticalLabelPosition=bottom;verticalAlign=top;html=1;shape=mxgraph.basic.rect;fillColor2=none;strokeWidth=0.5;size=20;indent=5;fillColor=#B3FF66;strokeColor=#000000;container=0;" parent="1" vertex="1">
          <mxGeometry x="684.5" y="240" width="15" height="15" as="geometry" />
        </mxCell>
        <mxCell id="TOQNIpB52cpntj8m0OE4-321" value="" style="verticalLabelPosition=bottom;verticalAlign=top;html=1;shape=mxgraph.basic.rect;fillColor2=none;strokeWidth=0.5;size=20;indent=5;fillColor=#B3FF66;strokeColor=#000000;container=0;" parent="1" vertex="1">
          <mxGeometry x="704.5" y="240" width="15" height="15" as="geometry" />
        </mxCell>
        <mxCell id="TOQNIpB52cpntj8m0OE4-322" value="" style="verticalLabelPosition=bottom;verticalAlign=top;html=1;shape=mxgraph.basic.rect;fillColor2=none;strokeWidth=0.5;size=20;indent=5;fillColor=#B3FF66;strokeColor=#000000;container=0;" parent="1" vertex="1">
          <mxGeometry x="724.5" y="240" width="15" height="15" as="geometry" />
        </mxCell>
        <mxCell id="TOQNIpB52cpntj8m0OE4-330" value="" style="verticalLabelPosition=bottom;verticalAlign=top;html=1;shape=mxgraph.basic.rect;fillColor2=none;strokeWidth=0.5;size=20;indent=5;fillColor=#B3FF66;strokeColor=#000000;container=0;" parent="1" vertex="1">
          <mxGeometry x="465" y="260" width="15" height="15" as="geometry" />
        </mxCell>
        <mxCell id="TOQNIpB52cpntj8m0OE4-331" value="" style="verticalLabelPosition=bottom;verticalAlign=top;html=1;shape=mxgraph.basic.rect;fillColor2=none;strokeWidth=0.5;size=20;indent=5;fillColor=#B3FF66;strokeColor=#000000;container=0;" parent="1" vertex="1">
          <mxGeometry x="485" y="260" width="15" height="15" as="geometry" />
        </mxCell>
        <mxCell id="TOQNIpB52cpntj8m0OE4-332" value="" style="verticalLabelPosition=bottom;verticalAlign=top;html=1;shape=mxgraph.basic.rect;fillColor2=none;strokeWidth=0.5;size=20;indent=5;fillColor=#B3FF66;strokeColor=#000000;container=0;" parent="1" vertex="1">
          <mxGeometry x="505" y="260" width="15" height="15" as="geometry" />
        </mxCell>
        <mxCell id="TOQNIpB52cpntj8m0OE4-333" value="" style="verticalLabelPosition=bottom;verticalAlign=top;html=1;shape=mxgraph.basic.rect;fillColor2=none;strokeWidth=0.5;size=20;indent=5;fillColor=#B3FF66;strokeColor=#000000;container=0;" parent="1" vertex="1">
          <mxGeometry x="525" y="260" width="15" height="15" as="geometry" />
        </mxCell>
        <mxCell id="TOQNIpB52cpntj8m0OE4-334" value="" style="verticalLabelPosition=bottom;verticalAlign=top;html=1;shape=mxgraph.basic.rect;fillColor2=none;strokeWidth=0.5;size=20;indent=5;fillColor=#B3FF66;strokeColor=#000000;container=0;" parent="1" vertex="1">
          <mxGeometry x="545" y="260" width="15" height="15" as="geometry" />
        </mxCell>
        <mxCell id="TOQNIpB52cpntj8m0OE4-335" value="" style="verticalLabelPosition=bottom;verticalAlign=top;html=1;shape=mxgraph.basic.rect;fillColor2=none;strokeWidth=0.5;size=20;indent=5;fillColor=#B3FF66;strokeColor=#000000;container=0;" parent="1" vertex="1">
          <mxGeometry x="565" y="260" width="15" height="15" as="geometry" />
        </mxCell>
        <mxCell id="TOQNIpB52cpntj8m0OE4-336" value="" style="verticalLabelPosition=bottom;verticalAlign=top;html=1;shape=mxgraph.basic.rect;fillColor2=none;strokeWidth=0.5;size=20;indent=5;fillColor=#B3FF66;strokeColor=#000000;container=0;" parent="1" vertex="1">
          <mxGeometry x="585" y="260" width="15" height="15" as="geometry" />
        </mxCell>
        <mxCell id="TOQNIpB52cpntj8m0OE4-337" value="" style="verticalLabelPosition=bottom;verticalAlign=top;html=1;shape=mxgraph.basic.rect;fillColor2=none;strokeWidth=0.5;size=20;indent=5;fillColor=#B3FF66;strokeColor=#000000;container=0;" parent="1" vertex="1">
          <mxGeometry x="605" y="260" width="15" height="15" as="geometry" />
        </mxCell>
        <mxCell id="TOQNIpB52cpntj8m0OE4-338" value="" style="verticalLabelPosition=bottom;verticalAlign=top;html=1;shape=mxgraph.basic.rect;fillColor2=none;strokeWidth=0.5;size=20;indent=5;fillColor=#B3FF66;strokeColor=#000000;container=0;" parent="1" vertex="1">
          <mxGeometry x="625" y="260" width="15" height="15" as="geometry" />
        </mxCell>
        <mxCell id="TOQNIpB52cpntj8m0OE4-339" value="" style="verticalLabelPosition=bottom;verticalAlign=top;html=1;shape=mxgraph.basic.rect;fillColor2=none;strokeWidth=0.5;size=20;indent=5;fillColor=#B3FF66;strokeColor=#000000;container=0;" parent="1" vertex="1">
          <mxGeometry x="645" y="260" width="15" height="15" as="geometry" />
        </mxCell>
        <mxCell id="TOQNIpB52cpntj8m0OE4-340" value="" style="verticalLabelPosition=bottom;verticalAlign=top;html=1;shape=mxgraph.basic.rect;fillColor2=none;strokeWidth=0.5;size=20;indent=5;fillColor=#B3FF66;strokeColor=#000000;container=0;" parent="1" vertex="1">
          <mxGeometry x="665" y="260" width="15" height="15" as="geometry" />
        </mxCell>
        <mxCell id="TOQNIpB52cpntj8m0OE4-341" value="" style="verticalLabelPosition=bottom;verticalAlign=top;html=1;shape=mxgraph.basic.rect;fillColor2=none;strokeWidth=0.5;size=20;indent=5;fillColor=#B3FF66;strokeColor=#000000;container=0;" parent="1" vertex="1">
          <mxGeometry x="685" y="260" width="15" height="15" as="geometry" />
        </mxCell>
        <mxCell id="TOQNIpB52cpntj8m0OE4-342" value="" style="verticalLabelPosition=bottom;verticalAlign=top;html=1;shape=mxgraph.basic.rect;fillColor2=none;strokeWidth=0.5;size=20;indent=5;fillColor=#B3FF66;strokeColor=#000000;container=0;" parent="1" vertex="1">
          <mxGeometry x="705" y="260" width="15" height="15" as="geometry" />
        </mxCell>
        <mxCell id="TOQNIpB52cpntj8m0OE4-343" value="" style="verticalLabelPosition=bottom;verticalAlign=top;html=1;shape=mxgraph.basic.rect;fillColor2=none;strokeWidth=0.5;size=20;indent=5;fillColor=#B3FF66;strokeColor=#000000;container=0;" parent="1" vertex="1">
          <mxGeometry x="725" y="260" width="15" height="15" as="geometry" />
        </mxCell>
        <mxCell id="TOQNIpB52cpntj8m0OE4-351" value="" style="verticalLabelPosition=bottom;verticalAlign=top;html=1;shape=mxgraph.basic.rect;fillColor2=none;strokeWidth=0.5;size=20;indent=5;fillColor=#B3FF66;strokeColor=#000000;container=0;" parent="1" vertex="1">
          <mxGeometry x="465" y="280" width="15" height="15" as="geometry" />
        </mxCell>
        <mxCell id="TOQNIpB52cpntj8m0OE4-352" value="" style="verticalLabelPosition=bottom;verticalAlign=top;html=1;shape=mxgraph.basic.rect;fillColor2=none;strokeWidth=0.5;size=20;indent=5;fillColor=#B3FF66;strokeColor=#000000;container=0;" parent="1" vertex="1">
          <mxGeometry x="485" y="280" width="15" height="15" as="geometry" />
        </mxCell>
        <mxCell id="TOQNIpB52cpntj8m0OE4-353" value="" style="verticalLabelPosition=bottom;verticalAlign=top;html=1;shape=mxgraph.basic.rect;fillColor2=none;strokeWidth=0.5;size=20;indent=5;fillColor=#B3FF66;strokeColor=#000000;container=0;" parent="1" vertex="1">
          <mxGeometry x="505" y="280" width="15" height="15" as="geometry" />
        </mxCell>
        <mxCell id="TOQNIpB52cpntj8m0OE4-354" value="" style="verticalLabelPosition=bottom;verticalAlign=top;html=1;shape=mxgraph.basic.rect;fillColor2=none;strokeWidth=0.5;size=20;indent=5;fillColor=#B3FF66;strokeColor=#000000;container=0;" parent="1" vertex="1">
          <mxGeometry x="525" y="280" width="15" height="15" as="geometry" />
        </mxCell>
        <mxCell id="TOQNIpB52cpntj8m0OE4-355" value="" style="verticalLabelPosition=bottom;verticalAlign=top;html=1;shape=mxgraph.basic.rect;fillColor2=none;strokeWidth=0.5;size=20;indent=5;fillColor=#B3FF66;strokeColor=#000000;container=0;" parent="1" vertex="1">
          <mxGeometry x="545" y="280" width="15" height="15" as="geometry" />
        </mxCell>
        <mxCell id="TOQNIpB52cpntj8m0OE4-356" value="" style="verticalLabelPosition=bottom;verticalAlign=top;html=1;shape=mxgraph.basic.rect;fillColor2=none;strokeWidth=0.5;size=20;indent=5;fillColor=#B3FF66;strokeColor=#000000;container=0;" parent="1" vertex="1">
          <mxGeometry x="565" y="280" width="15" height="15" as="geometry" />
        </mxCell>
        <mxCell id="TOQNIpB52cpntj8m0OE4-357" value="" style="verticalLabelPosition=bottom;verticalAlign=top;html=1;shape=mxgraph.basic.rect;fillColor2=none;strokeWidth=0.5;size=20;indent=5;fillColor=#B3FF66;strokeColor=#000000;container=0;" parent="1" vertex="1">
          <mxGeometry x="585" y="280" width="15" height="15" as="geometry" />
        </mxCell>
        <mxCell id="TOQNIpB52cpntj8m0OE4-358" value="" style="verticalLabelPosition=bottom;verticalAlign=top;html=1;shape=mxgraph.basic.rect;fillColor2=none;strokeWidth=0.5;size=20;indent=5;fillColor=#B3FF66;strokeColor=#000000;container=0;" parent="1" vertex="1">
          <mxGeometry x="605" y="280" width="15" height="15" as="geometry" />
        </mxCell>
        <mxCell id="TOQNIpB52cpntj8m0OE4-359" value="" style="verticalLabelPosition=bottom;verticalAlign=top;html=1;shape=mxgraph.basic.rect;fillColor2=none;strokeWidth=0.5;size=20;indent=5;fillColor=#B3FF66;strokeColor=#000000;container=0;" parent="1" vertex="1">
          <mxGeometry x="625" y="280" width="15" height="15" as="geometry" />
        </mxCell>
        <mxCell id="TOQNIpB52cpntj8m0OE4-360" value="" style="verticalLabelPosition=bottom;verticalAlign=top;html=1;shape=mxgraph.basic.rect;fillColor2=none;strokeWidth=0.5;size=20;indent=5;fillColor=#B3FF66;strokeColor=#000000;container=0;" parent="1" vertex="1">
          <mxGeometry x="645" y="280" width="15" height="15" as="geometry" />
        </mxCell>
        <mxCell id="TOQNIpB52cpntj8m0OE4-361" value="" style="verticalLabelPosition=bottom;verticalAlign=top;html=1;shape=mxgraph.basic.rect;fillColor2=none;strokeWidth=0.5;size=20;indent=5;fillColor=#B3FF66;strokeColor=#000000;container=0;" parent="1" vertex="1">
          <mxGeometry x="665" y="280" width="15" height="15" as="geometry" />
        </mxCell>
        <mxCell id="TOQNIpB52cpntj8m0OE4-362" value="" style="verticalLabelPosition=bottom;verticalAlign=top;html=1;shape=mxgraph.basic.rect;fillColor2=none;strokeWidth=0.5;size=20;indent=5;fillColor=#B3FF66;strokeColor=#000000;container=0;" parent="1" vertex="1">
          <mxGeometry x="685" y="280" width="15" height="15" as="geometry" />
        </mxCell>
        <mxCell id="TOQNIpB52cpntj8m0OE4-363" value="" style="verticalLabelPosition=bottom;verticalAlign=top;html=1;shape=mxgraph.basic.rect;fillColor2=none;strokeWidth=0.5;size=20;indent=5;fillColor=#B3FF66;strokeColor=#000000;container=0;" parent="1" vertex="1">
          <mxGeometry x="705" y="280" width="15" height="15" as="geometry" />
        </mxCell>
        <mxCell id="TOQNIpB52cpntj8m0OE4-364" value="" style="verticalLabelPosition=bottom;verticalAlign=top;html=1;shape=mxgraph.basic.rect;fillColor2=none;strokeWidth=0.5;size=20;indent=5;fillColor=#B3FF66;strokeColor=#000000;container=0;" parent="1" vertex="1">
          <mxGeometry x="725" y="280" width="15" height="15" as="geometry" />
        </mxCell>
        <mxCell id="TOQNIpB52cpntj8m0OE4-372" value="" style="verticalLabelPosition=bottom;verticalAlign=top;html=1;shape=mxgraph.basic.rect;fillColor2=none;strokeWidth=0.5;size=20;indent=5;fillColor=#B3FF66;strokeColor=#000000;container=0;" parent="1" vertex="1">
          <mxGeometry x="465" y="300" width="15" height="15" as="geometry" />
        </mxCell>
        <mxCell id="TOQNIpB52cpntj8m0OE4-373" value="" style="verticalLabelPosition=bottom;verticalAlign=top;html=1;shape=mxgraph.basic.rect;fillColor2=none;strokeWidth=0.5;size=20;indent=5;fillColor=#B3FF66;strokeColor=#000000;container=0;" parent="1" vertex="1">
          <mxGeometry x="485" y="300" width="15" height="15" as="geometry" />
        </mxCell>
        <mxCell id="TOQNIpB52cpntj8m0OE4-374" value="" style="verticalLabelPosition=bottom;verticalAlign=top;html=1;shape=mxgraph.basic.rect;fillColor2=none;strokeWidth=0.5;size=20;indent=5;fillColor=#B3FF66;strokeColor=#000000;container=0;" parent="1" vertex="1">
          <mxGeometry x="505" y="300" width="15" height="15" as="geometry" />
        </mxCell>
        <mxCell id="TOQNIpB52cpntj8m0OE4-375" value="" style="verticalLabelPosition=bottom;verticalAlign=top;html=1;shape=mxgraph.basic.rect;fillColor2=none;strokeWidth=0.5;size=20;indent=5;fillColor=#B3FF66;strokeColor=#000000;container=0;" parent="1" vertex="1">
          <mxGeometry x="525" y="300" width="15" height="15" as="geometry" />
        </mxCell>
        <mxCell id="TOQNIpB52cpntj8m0OE4-376" value="" style="verticalLabelPosition=bottom;verticalAlign=top;html=1;shape=mxgraph.basic.rect;fillColor2=none;strokeWidth=0.5;size=20;indent=5;fillColor=#B3FF66;strokeColor=#000000;container=0;" parent="1" vertex="1">
          <mxGeometry x="545" y="300" width="15" height="15" as="geometry" />
        </mxCell>
        <mxCell id="TOQNIpB52cpntj8m0OE4-377" value="" style="verticalLabelPosition=bottom;verticalAlign=top;html=1;shape=mxgraph.basic.rect;fillColor2=none;strokeWidth=0.5;size=20;indent=5;fillColor=#B3FF66;strokeColor=#000000;container=0;" parent="1" vertex="1">
          <mxGeometry x="565" y="300" width="15" height="15" as="geometry" />
        </mxCell>
        <mxCell id="TOQNIpB52cpntj8m0OE4-378" value="" style="verticalLabelPosition=bottom;verticalAlign=top;html=1;shape=mxgraph.basic.rect;fillColor2=none;strokeWidth=0.5;size=20;indent=5;fillColor=#B3FF66;strokeColor=#000000;container=0;" parent="1" vertex="1">
          <mxGeometry x="585" y="300" width="15" height="15" as="geometry" />
        </mxCell>
        <mxCell id="TOQNIpB52cpntj8m0OE4-379" value="" style="verticalLabelPosition=bottom;verticalAlign=top;html=1;shape=mxgraph.basic.rect;fillColor2=none;strokeWidth=0.5;size=20;indent=5;fillColor=#B3FF66;strokeColor=#000000;container=0;" parent="1" vertex="1">
          <mxGeometry x="605" y="300" width="15" height="15" as="geometry" />
        </mxCell>
        <mxCell id="TOQNIpB52cpntj8m0OE4-380" value="" style="verticalLabelPosition=bottom;verticalAlign=top;html=1;shape=mxgraph.basic.rect;fillColor2=none;strokeWidth=0.5;size=20;indent=5;fillColor=#B3FF66;strokeColor=#000000;container=0;" parent="1" vertex="1">
          <mxGeometry x="625" y="300" width="15" height="15" as="geometry" />
        </mxCell>
        <mxCell id="TOQNIpB52cpntj8m0OE4-381" value="" style="verticalLabelPosition=bottom;verticalAlign=top;html=1;shape=mxgraph.basic.rect;fillColor2=none;strokeWidth=0.5;size=20;indent=5;fillColor=#B3FF66;strokeColor=#000000;container=0;" parent="1" vertex="1">
          <mxGeometry x="645" y="300" width="15" height="15" as="geometry" />
        </mxCell>
        <mxCell id="TOQNIpB52cpntj8m0OE4-382" value="" style="verticalLabelPosition=bottom;verticalAlign=top;html=1;shape=mxgraph.basic.rect;fillColor2=none;strokeWidth=0.5;size=20;indent=5;fillColor=#B3FF66;strokeColor=#000000;container=0;" parent="1" vertex="1">
          <mxGeometry x="665" y="300" width="15" height="15" as="geometry" />
        </mxCell>
        <mxCell id="TOQNIpB52cpntj8m0OE4-383" value="" style="verticalLabelPosition=bottom;verticalAlign=top;html=1;shape=mxgraph.basic.rect;fillColor2=none;strokeWidth=0.5;size=20;indent=5;fillColor=#B3FF66;strokeColor=#000000;container=0;" parent="1" vertex="1">
          <mxGeometry x="685" y="300" width="15" height="15" as="geometry" />
        </mxCell>
        <mxCell id="TOQNIpB52cpntj8m0OE4-384" value="" style="verticalLabelPosition=bottom;verticalAlign=top;html=1;shape=mxgraph.basic.rect;fillColor2=none;strokeWidth=0.5;size=20;indent=5;fillColor=#B3FF66;strokeColor=#000000;container=0;" parent="1" vertex="1">
          <mxGeometry x="705" y="300" width="15" height="15" as="geometry" />
        </mxCell>
        <mxCell id="TOQNIpB52cpntj8m0OE4-385" value="" style="verticalLabelPosition=bottom;verticalAlign=top;html=1;shape=mxgraph.basic.rect;fillColor2=none;strokeWidth=0.5;size=20;indent=5;fillColor=#B3FF66;strokeColor=#000000;container=0;" parent="1" vertex="1">
          <mxGeometry x="725" y="300" width="15" height="15" as="geometry" />
        </mxCell>
        <mxCell id="TOQNIpB52cpntj8m0OE4-393" value="" style="verticalLabelPosition=bottom;verticalAlign=top;html=1;shape=mxgraph.basic.rect;fillColor2=none;strokeWidth=0.5;size=20;indent=5;fillColor=#B3FF66;strokeColor=#000000;container=0;" parent="1" vertex="1">
          <mxGeometry x="465" y="320" width="15" height="15" as="geometry" />
        </mxCell>
        <mxCell id="TOQNIpB52cpntj8m0OE4-394" value="" style="verticalLabelPosition=bottom;verticalAlign=top;html=1;shape=mxgraph.basic.rect;fillColor2=none;strokeWidth=0.5;size=20;indent=5;fillColor=#B3FF66;strokeColor=#000000;container=0;" parent="1" vertex="1">
          <mxGeometry x="485" y="320" width="15" height="15" as="geometry" />
        </mxCell>
        <mxCell id="TOQNIpB52cpntj8m0OE4-395" value="" style="verticalLabelPosition=bottom;verticalAlign=top;html=1;shape=mxgraph.basic.rect;fillColor2=none;strokeWidth=0.5;size=20;indent=5;fillColor=#B3FF66;strokeColor=#000000;container=0;" parent="1" vertex="1">
          <mxGeometry x="505" y="320" width="15" height="15" as="geometry" />
        </mxCell>
        <mxCell id="TOQNIpB52cpntj8m0OE4-396" value="" style="verticalLabelPosition=bottom;verticalAlign=top;html=1;shape=mxgraph.basic.rect;fillColor2=none;strokeWidth=0.5;size=20;indent=5;fillColor=#B3FF66;strokeColor=#000000;container=0;" parent="1" vertex="1">
          <mxGeometry x="525" y="320" width="15" height="15" as="geometry" />
        </mxCell>
        <mxCell id="TOQNIpB52cpntj8m0OE4-397" value="" style="verticalLabelPosition=bottom;verticalAlign=top;html=1;shape=mxgraph.basic.rect;fillColor2=none;strokeWidth=0.5;size=20;indent=5;fillColor=#B3FF66;strokeColor=#000000;container=0;" parent="1" vertex="1">
          <mxGeometry x="545" y="320" width="15" height="15" as="geometry" />
        </mxCell>
        <mxCell id="TOQNIpB52cpntj8m0OE4-398" value="" style="verticalLabelPosition=bottom;verticalAlign=top;html=1;shape=mxgraph.basic.rect;fillColor2=none;strokeWidth=0.5;size=20;indent=5;fillColor=#B3FF66;strokeColor=#000000;container=0;" parent="1" vertex="1">
          <mxGeometry x="565" y="320" width="15" height="15" as="geometry" />
        </mxCell>
        <mxCell id="TOQNIpB52cpntj8m0OE4-399" value="" style="verticalLabelPosition=bottom;verticalAlign=top;html=1;shape=mxgraph.basic.rect;fillColor2=none;strokeWidth=0.5;size=20;indent=5;fillColor=#B3FF66;strokeColor=#000000;container=0;" parent="1" vertex="1">
          <mxGeometry x="585" y="320" width="15" height="15" as="geometry" />
        </mxCell>
        <mxCell id="TOQNIpB52cpntj8m0OE4-400" value="" style="verticalLabelPosition=bottom;verticalAlign=top;html=1;shape=mxgraph.basic.rect;fillColor2=none;strokeWidth=0.5;size=20;indent=5;fillColor=#B3FF66;strokeColor=#000000;container=0;" parent="1" vertex="1">
          <mxGeometry x="605" y="320" width="15" height="15" as="geometry" />
        </mxCell>
        <mxCell id="TOQNIpB52cpntj8m0OE4-401" value="" style="verticalLabelPosition=bottom;verticalAlign=top;html=1;shape=mxgraph.basic.rect;fillColor2=none;strokeWidth=0.5;size=20;indent=5;fillColor=#B3FF66;strokeColor=#000000;container=0;" parent="1" vertex="1">
          <mxGeometry x="625" y="320" width="15" height="15" as="geometry" />
        </mxCell>
        <mxCell id="TOQNIpB52cpntj8m0OE4-402" value="" style="verticalLabelPosition=bottom;verticalAlign=top;html=1;shape=mxgraph.basic.rect;fillColor2=none;strokeWidth=0.5;size=20;indent=5;fillColor=#B3FF66;strokeColor=#000000;container=0;" parent="1" vertex="1">
          <mxGeometry x="645" y="320" width="15" height="15" as="geometry" />
        </mxCell>
        <mxCell id="TOQNIpB52cpntj8m0OE4-403" value="" style="verticalLabelPosition=bottom;verticalAlign=top;html=1;shape=mxgraph.basic.rect;fillColor2=none;strokeWidth=0.5;size=20;indent=5;fillColor=#B3FF66;strokeColor=#000000;container=0;" parent="1" vertex="1">
          <mxGeometry x="665" y="320" width="15" height="15" as="geometry" />
        </mxCell>
        <mxCell id="TOQNIpB52cpntj8m0OE4-404" value="" style="verticalLabelPosition=bottom;verticalAlign=top;html=1;shape=mxgraph.basic.rect;fillColor2=none;strokeWidth=0.5;size=20;indent=5;fillColor=#B3FF66;strokeColor=#000000;container=0;" parent="1" vertex="1">
          <mxGeometry x="685" y="320" width="15" height="15" as="geometry" />
        </mxCell>
        <mxCell id="TOQNIpB52cpntj8m0OE4-405" value="" style="verticalLabelPosition=bottom;verticalAlign=top;html=1;shape=mxgraph.basic.rect;fillColor2=none;strokeWidth=0.5;size=20;indent=5;fillColor=#B3FF66;strokeColor=#000000;container=0;" parent="1" vertex="1">
          <mxGeometry x="705" y="320" width="15" height="15" as="geometry" />
        </mxCell>
        <mxCell id="TOQNIpB52cpntj8m0OE4-406" value="" style="verticalLabelPosition=bottom;verticalAlign=top;html=1;shape=mxgraph.basic.rect;fillColor2=none;strokeWidth=0.5;size=20;indent=5;fillColor=#B3FF66;strokeColor=#000000;container=0;" parent="1" vertex="1">
          <mxGeometry x="725" y="320" width="15" height="15" as="geometry" />
        </mxCell>
        <mxCell id="TOQNIpB52cpntj8m0OE4-414" value="" style="verticalLabelPosition=bottom;verticalAlign=top;html=1;shape=mxgraph.basic.rect;fillColor2=none;strokeWidth=0.5;size=20;indent=5;fillColor=#B3FF66;strokeColor=#000000;container=0;" parent="1" vertex="1">
          <mxGeometry x="465" y="340" width="15" height="15" as="geometry" />
        </mxCell>
        <mxCell id="TOQNIpB52cpntj8m0OE4-415" value="" style="verticalLabelPosition=bottom;verticalAlign=top;html=1;shape=mxgraph.basic.rect;fillColor2=none;strokeWidth=0.5;size=20;indent=5;fillColor=#B3FF66;strokeColor=#000000;container=0;" parent="1" vertex="1">
          <mxGeometry x="485" y="340" width="15" height="15" as="geometry" />
        </mxCell>
        <mxCell id="TOQNIpB52cpntj8m0OE4-416" value="" style="verticalLabelPosition=bottom;verticalAlign=top;html=1;shape=mxgraph.basic.rect;fillColor2=none;strokeWidth=0.5;size=20;indent=5;fillColor=#B3FF66;strokeColor=#000000;container=0;" parent="1" vertex="1">
          <mxGeometry x="505" y="340" width="15" height="15" as="geometry" />
        </mxCell>
        <mxCell id="TOQNIpB52cpntj8m0OE4-417" value="" style="verticalLabelPosition=bottom;verticalAlign=top;html=1;shape=mxgraph.basic.rect;fillColor2=none;strokeWidth=0.5;size=20;indent=5;fillColor=#B3FF66;strokeColor=#000000;container=0;" parent="1" vertex="1">
          <mxGeometry x="525" y="340" width="15" height="15" as="geometry" />
        </mxCell>
        <mxCell id="TOQNIpB52cpntj8m0OE4-418" value="" style="verticalLabelPosition=bottom;verticalAlign=top;html=1;shape=mxgraph.basic.rect;fillColor2=none;strokeWidth=0.5;size=20;indent=5;fillColor=#B3FF66;strokeColor=#000000;container=0;" parent="1" vertex="1">
          <mxGeometry x="545" y="340" width="15" height="15" as="geometry" />
        </mxCell>
        <mxCell id="TOQNIpB52cpntj8m0OE4-419" value="" style="verticalLabelPosition=bottom;verticalAlign=top;html=1;shape=mxgraph.basic.rect;fillColor2=none;strokeWidth=0.5;size=20;indent=5;fillColor=#B3FF66;strokeColor=#000000;container=0;" parent="1" vertex="1">
          <mxGeometry x="565" y="340" width="15" height="15" as="geometry" />
        </mxCell>
        <mxCell id="TOQNIpB52cpntj8m0OE4-420" value="" style="verticalLabelPosition=bottom;verticalAlign=top;html=1;shape=mxgraph.basic.rect;fillColor2=none;strokeWidth=0.5;size=20;indent=5;fillColor=#B3FF66;strokeColor=#000000;container=0;" parent="1" vertex="1">
          <mxGeometry x="585" y="340" width="15" height="15" as="geometry" />
        </mxCell>
        <mxCell id="TOQNIpB52cpntj8m0OE4-421" value="" style="verticalLabelPosition=bottom;verticalAlign=top;html=1;shape=mxgraph.basic.rect;fillColor2=none;strokeWidth=0.5;size=20;indent=5;fillColor=#B3FF66;strokeColor=#000000;container=0;" parent="1" vertex="1">
          <mxGeometry x="605" y="340" width="15" height="15" as="geometry" />
        </mxCell>
        <mxCell id="TOQNIpB52cpntj8m0OE4-422" value="" style="verticalLabelPosition=bottom;verticalAlign=top;html=1;shape=mxgraph.basic.rect;fillColor2=none;strokeWidth=0.5;size=20;indent=5;fillColor=#B3FF66;strokeColor=#000000;container=0;" parent="1" vertex="1">
          <mxGeometry x="625" y="340" width="15" height="15" as="geometry" />
        </mxCell>
        <mxCell id="TOQNIpB52cpntj8m0OE4-423" value="" style="verticalLabelPosition=bottom;verticalAlign=top;html=1;shape=mxgraph.basic.rect;fillColor2=none;strokeWidth=0.5;size=20;indent=5;fillColor=#B3FF66;strokeColor=#000000;container=0;" parent="1" vertex="1">
          <mxGeometry x="645" y="340" width="15" height="15" as="geometry" />
        </mxCell>
        <mxCell id="TOQNIpB52cpntj8m0OE4-424" value="" style="verticalLabelPosition=bottom;verticalAlign=top;html=1;shape=mxgraph.basic.rect;fillColor2=none;strokeWidth=0.5;size=20;indent=5;fillColor=#B3FF66;strokeColor=#000000;container=0;" parent="1" vertex="1">
          <mxGeometry x="665" y="340" width="15" height="15" as="geometry" />
        </mxCell>
        <mxCell id="TOQNIpB52cpntj8m0OE4-425" value="" style="verticalLabelPosition=bottom;verticalAlign=top;html=1;shape=mxgraph.basic.rect;fillColor2=none;strokeWidth=0.5;size=20;indent=5;fillColor=#B3FF66;strokeColor=#000000;container=0;" parent="1" vertex="1">
          <mxGeometry x="685" y="340" width="15" height="15" as="geometry" />
        </mxCell>
        <mxCell id="TOQNIpB52cpntj8m0OE4-426" value="" style="verticalLabelPosition=bottom;verticalAlign=top;html=1;shape=mxgraph.basic.rect;fillColor2=none;strokeWidth=0.5;size=20;indent=5;fillColor=#B3FF66;strokeColor=#000000;container=0;" parent="1" vertex="1">
          <mxGeometry x="705" y="340" width="15" height="15" as="geometry" />
        </mxCell>
        <mxCell id="TOQNIpB52cpntj8m0OE4-427" value="" style="verticalLabelPosition=bottom;verticalAlign=top;html=1;shape=mxgraph.basic.rect;fillColor2=none;strokeWidth=0.5;size=20;indent=5;fillColor=#B3FF66;strokeColor=#000000;container=0;" parent="1" vertex="1">
          <mxGeometry x="725" y="340" width="15" height="15" as="geometry" />
        </mxCell>
        <mxCell id="TOQNIpB52cpntj8m0OE4-435" value="" style="verticalLabelPosition=bottom;verticalAlign=top;html=1;shape=mxgraph.basic.rect;fillColor2=none;strokeWidth=0.5;size=20;indent=5;fillColor=#B3FF66;strokeColor=#000000;container=0;" parent="1" vertex="1">
          <mxGeometry x="465" y="360" width="15" height="15" as="geometry" />
        </mxCell>
        <mxCell id="TOQNIpB52cpntj8m0OE4-436" value="" style="verticalLabelPosition=bottom;verticalAlign=top;html=1;shape=mxgraph.basic.rect;fillColor2=none;strokeWidth=0.5;size=20;indent=5;fillColor=#B3FF66;strokeColor=#000000;container=0;" parent="1" vertex="1">
          <mxGeometry x="485" y="360" width="15" height="15" as="geometry" />
        </mxCell>
        <mxCell id="TOQNIpB52cpntj8m0OE4-437" value="" style="verticalLabelPosition=bottom;verticalAlign=top;html=1;shape=mxgraph.basic.rect;fillColor2=none;strokeWidth=0.5;size=20;indent=5;fillColor=#B3FF66;strokeColor=#000000;container=0;" parent="1" vertex="1">
          <mxGeometry x="505" y="360" width="15" height="15" as="geometry" />
        </mxCell>
        <mxCell id="TOQNIpB52cpntj8m0OE4-438" value="" style="verticalLabelPosition=bottom;verticalAlign=top;html=1;shape=mxgraph.basic.rect;fillColor2=none;strokeWidth=0.5;size=20;indent=5;fillColor=#B3FF66;strokeColor=#000000;container=0;" parent="1" vertex="1">
          <mxGeometry x="525" y="360" width="15" height="15" as="geometry" />
        </mxCell>
        <mxCell id="TOQNIpB52cpntj8m0OE4-439" value="" style="verticalLabelPosition=bottom;verticalAlign=top;html=1;shape=mxgraph.basic.rect;fillColor2=none;strokeWidth=0.5;size=20;indent=5;fillColor=#B3FF66;strokeColor=#000000;container=0;" parent="1" vertex="1">
          <mxGeometry x="545" y="360" width="15" height="15" as="geometry" />
        </mxCell>
        <mxCell id="TOQNIpB52cpntj8m0OE4-440" value="" style="verticalLabelPosition=bottom;verticalAlign=top;html=1;shape=mxgraph.basic.rect;fillColor2=none;strokeWidth=0.5;size=20;indent=5;fillColor=#B3FF66;strokeColor=#000000;container=0;" parent="1" vertex="1">
          <mxGeometry x="565" y="360" width="15" height="15" as="geometry" />
        </mxCell>
        <mxCell id="TOQNIpB52cpntj8m0OE4-441" value="" style="verticalLabelPosition=bottom;verticalAlign=top;html=1;shape=mxgraph.basic.rect;fillColor2=none;strokeWidth=0.5;size=20;indent=5;fillColor=#B3FF66;strokeColor=#000000;container=0;" parent="1" vertex="1">
          <mxGeometry x="585" y="360" width="15" height="15" as="geometry" />
        </mxCell>
        <mxCell id="TOQNIpB52cpntj8m0OE4-442" value="" style="verticalLabelPosition=bottom;verticalAlign=top;html=1;shape=mxgraph.basic.rect;fillColor2=none;strokeWidth=0.5;size=20;indent=5;fillColor=#B3FF66;strokeColor=#000000;container=0;" parent="1" vertex="1">
          <mxGeometry x="605" y="360" width="15" height="15" as="geometry" />
        </mxCell>
        <mxCell id="TOQNIpB52cpntj8m0OE4-443" value="" style="verticalLabelPosition=bottom;verticalAlign=top;html=1;shape=mxgraph.basic.rect;fillColor2=none;strokeWidth=0.5;size=20;indent=5;fillColor=#B3FF66;strokeColor=#000000;container=0;" parent="1" vertex="1">
          <mxGeometry x="625" y="360" width="15" height="15" as="geometry" />
        </mxCell>
        <mxCell id="TOQNIpB52cpntj8m0OE4-444" value="" style="verticalLabelPosition=bottom;verticalAlign=top;html=1;shape=mxgraph.basic.rect;fillColor2=none;strokeWidth=0.5;size=20;indent=5;fillColor=#B3FF66;strokeColor=#000000;container=0;" parent="1" vertex="1">
          <mxGeometry x="645" y="360" width="15" height="15" as="geometry" />
        </mxCell>
        <mxCell id="TOQNIpB52cpntj8m0OE4-445" value="" style="verticalLabelPosition=bottom;verticalAlign=top;html=1;shape=mxgraph.basic.rect;fillColor2=none;strokeWidth=0.5;size=20;indent=5;fillColor=#B3FF66;strokeColor=#000000;container=0;" parent="1" vertex="1">
          <mxGeometry x="665" y="360" width="15" height="15" as="geometry" />
        </mxCell>
        <mxCell id="TOQNIpB52cpntj8m0OE4-446" value="" style="verticalLabelPosition=bottom;verticalAlign=top;html=1;shape=mxgraph.basic.rect;fillColor2=none;strokeWidth=0.5;size=20;indent=5;fillColor=#B3FF66;strokeColor=#000000;container=0;" parent="1" vertex="1">
          <mxGeometry x="685" y="360" width="15" height="15" as="geometry" />
        </mxCell>
        <mxCell id="TOQNIpB52cpntj8m0OE4-447" value="" style="verticalLabelPosition=bottom;verticalAlign=top;html=1;shape=mxgraph.basic.rect;fillColor2=none;strokeWidth=0.5;size=20;indent=5;fillColor=#B3FF66;strokeColor=#000000;container=0;" parent="1" vertex="1">
          <mxGeometry x="705" y="360" width="15" height="15" as="geometry" />
        </mxCell>
        <mxCell id="TOQNIpB52cpntj8m0OE4-448" value="" style="verticalLabelPosition=bottom;verticalAlign=top;html=1;shape=mxgraph.basic.rect;fillColor2=none;strokeWidth=0.5;size=20;indent=5;fillColor=#B3FF66;strokeColor=#000000;container=0;" parent="1" vertex="1">
          <mxGeometry x="725" y="360" width="15" height="15" as="geometry" />
        </mxCell>
      </root>
    </mxGraphModel>
  </diagram>
</mxfile>
